<svg width="38" height="29" viewBox="0 0 38 29" fill="none" xmlns="http://www.w3.org/2000/svg">
<path fill-rule="evenodd" clip-rule="evenodd" d="M24.3201 28.3972C23.6673 28.3972 23.0327 28.2786 22.4257 28.0541C24.7443 26.1681 26.3262 22.3974 26.3262 18.0534C26.3262 13.1848 24.3391 9.03627 21.5548 7.45411C22.4166 6.96896 23.3491 6.70648 24.3201 6.70648C26.3566 6.70648 28.2424 7.86655 29.6365 9.82702C31.0299 11.7865 31.9056 14.5163 31.9056 17.5518C31.9056 20.5874 31.0299 23.3171 29.6365 25.2766C28.2424 27.2371 26.3566 28.3972 24.3201 28.3972ZM20.7097 6.94092L20.8148 7.10221C20.251 6.88468 19.6613 6.76923 19.0542 6.76923C18.5275 6.76923 18.014 6.8561 17.5191 7.0211C17.4828 6.99643 17.4463 6.9721 17.4096 6.94812C17.4073 6.89241 17.4102 6.8492 17.4186 6.81344L17.4215 6.80134L17.4237 6.7891C17.4352 6.724 17.4518 6.6598 17.4733 6.59715L17.4821 6.57162L17.4876 6.54521C17.5518 6.24002 17.64 5.93907 17.7341 5.62811C17.9887 4.85197 18.318 4.10249 18.7172 3.39101L18.7186 3.38846C19.2501 2.42621 19.9418 1.57162 20.757 0.862325C21.2359 0.445583 22.0126 0.589069 22.4 1.22964L22.6466 1.63738C22.9656 2.16503 22.8558 2.89936 22.4199 3.50177L22.4171 3.50559L22.4171 3.50561C22.1053 3.94632 21.8534 4.42762 21.6682 4.93595C21.4717 5.45236 21.3312 5.9884 21.2492 6.53427C21.2441 6.56734 21.2397 6.59828 21.2364 6.62753C21.0576 6.72405 20.8819 6.82865 20.7097 6.94092ZM13.7882 6.70648C14.7589 6.70648 15.6916 6.96888 16.5535 7.45412C13.7692 9.03628 11.7821 13.1848 11.7821 18.0534C11.7821 22.3974 13.364 26.168 15.6826 28.0541C15.0756 28.2786 14.441 28.3972 13.7882 28.3972C11.7517 28.3972 9.86589 27.2371 8.47177 25.2766C7.07834 23.3171 6.20271 20.5874 6.20271 17.5518C6.20271 14.5163 7.07834 11.7865 8.47177 9.82702C9.86589 7.86655 11.7517 6.70648 13.7882 6.70648ZM8.66475 26.8917C8.34202 26.552 8.03852 26.1818 7.75652 25.7853C6.24573 23.6607 5.32505 20.7484 5.32505 17.5518C5.32505 14.3553 6.24573 11.4429 7.75652 9.3184C8.87487 7.74571 10.3312 6.58855 11.9844 6.094C10.9951 5.51749 9.90916 5.202 8.77303 5.202C6.58639 5.202 4.57444 6.37401 3.09449 8.33277C1.61435 10.2918 0.686035 13.0178 0.686035 16.0474C0.686035 19.0769 1.61435 21.8029 3.09449 23.7619C4.54998 25.6883 6.52002 26.8537 8.66475 26.8917ZM13.2114 5.8554C13.4018 5.83779 13.5941 5.82882 13.7882 5.82882C14.7746 5.82882 15.7182 6.06138 16.5921 6.48431C16.6044 6.43548 16.6184 6.38708 16.6341 6.3392C16.7067 6.00061 16.803 5.67455 16.8956 5.36895L16.8955 5.36892L16.8986 5.35955C17.0165 4.99955 17.1494 4.64488 17.297 4.29655C17.0207 4.08929 16.6743 3.94523 16.2838 3.85036C15.7973 3.73217 15.2715 3.6974 14.7911 3.6974C13.5448 3.6974 12.3574 4.08628 11.2915 4.79184C11.9698 5.05022 12.6132 5.40975 13.2114 5.8554ZM22.2043 6.19633C22.8786 5.95707 23.5876 5.82882 24.3201 5.82882C24.5142 5.82882 24.7065 5.83779 24.8969 5.85541C25.495 5.40978 26.1384 5.05027 26.8167 4.79189C25.7556 4.08949 24.5741 3.70089 23.3337 3.69743C23.2723 3.80802 23.2048 3.91402 23.1323 4.01429C22.8658 4.3914 22.6502 4.80353 22.4919 5.23904L22.4919 5.23905L22.4895 5.24526C22.3715 5.55523 22.2761 5.87317 22.2043 6.19633ZM26.1239 6.094C27.7771 6.58856 29.2334 7.74572 30.3517 9.3184C31.8625 11.4429 32.7832 14.3553 32.7832 17.5518C32.7832 20.7484 31.8625 23.6607 30.3517 25.7853C30.0697 26.1818 29.7662 26.552 29.4435 26.8917C31.5883 26.8538 33.5583 25.6883 35.0138 23.7619C36.4939 21.8029 37.4223 19.0769 37.4223 16.0474C37.4223 13.0178 36.4939 10.2918 35.0138 8.33277C33.5339 6.37401 31.5219 5.202 29.3353 5.202C28.1991 5.202 27.1131 5.51749 26.1239 6.094ZM23.4585 25.5571C24.6703 23.6767 25.4485 21.0262 25.4485 18.0534C25.4485 15.0806 24.6703 12.4301 23.4585 10.5497C22.2408 8.6602 20.6634 7.64689 19.0542 7.64689C17.4449 7.64689 15.8675 8.6602 14.6498 10.5497C13.438 12.4301 12.6598 15.0806 12.6598 18.0534C12.6598 21.0262 13.438 23.6767 14.6498 25.5571C15.8675 27.4466 17.4449 28.4599 19.0542 28.4599C20.6634 28.4599 22.2408 27.4466 23.4585 25.5571Z" fill="#F77F00"/>
</svg>
